<svg xmlns="http://www.w3.org/2000/svg" version="1.1" xmlns:xlink="http://www.w3.org/1999/xlink" xmlns:svgjs="http://svgjs.dev/svgjs" viewBox="0 0 800 800"><defs><linearGradient x1="50%" y1="0%" x2="50%" y2="100%" id="ccchaos-grad"><stop stop-color="hsl(206, 75%, 49%)" stop-opacity="1" offset="0%"></stop><stop stop-color="hsl(331, 90%, 56%)" stop-opacity="1" offset="100%"></stop></linearGradient></defs><g stroke-width="2" stroke="url(#ccchaos-grad)" fill="none" stroke-linecap="round"><path d="M378.7 99.88C388.07 101.47 397.4 105.06 406.66 110.18 415.93 115.95 425.15 122.21 434.32 128.41 443.53 133.71 452.71 138.16 461.87 141.59 471.1 143.52 480.34 144.52 489.6 144.85 498.97 144.34 508.4 143.87 517.88 143.83 527.51 144.1 537.22 145.48 547 148.15 556.94 151.86 566.95 157.06 576.99 163.66 587.15 171.28 597.29 180.04 607.36 189.67 617.44 199.82 627.33 210.43 636.95 221.25 646.4 232.05 655.41 242.74 663.86 253.23 671.92 263.36 679.24 273.17 685.69 282.69 691.53 291.77 696.34 300.61 700.01 309.3 702.93 317.63 704.64 325.93 705.09 334.3 704.81 342.44 703.33 350.77 700.68 359.36 697.52 367.83 693.4 376.66 688.44 385.88 683.37 395.05 677.78 404.68 671.83 414.77 666.27 424.86 660.81 435.2 655.61 445.75 651.17 456.3 647.14 467.02 643.59 477.86 640.92 488.63 638.71 499.4 636.93 510.05 635.95 520.49 635.25 530.61 634.74 540.22 634.77 549.36 634.78 557.74 634.65 565.13 633.6 580.09 626.42 587.83 621.41 587.1 617.54 587.2 612.92 587.85 607.6 589.57 601.99 593.22 595.71 598.7 588.82 606.25 581.69 616.12 574.02 627.89 565.86 641.14 557.54 655.35 548.82 669.59 539.74 682.87 530.57 694.43 521.12 703.19 511.44 708.34 501.71 709.94 491.8 707.48 481.76 701.28 471.7 692.73 461.53 682.31 451.28 671.36 441.04 661.92 430.73 654.66 420.37 650.66 410.02 651.01 399.86 655.1 389.92 662.23 379.96 671.94 370.2 682.33 360.64 692 351.05 700.33 341.64 705.63 332.43 707.26 323.16 705.41 314.07 699.65 305.15 690.51 296.17 678.93 287.35 665.49 278.7 651.2 269.97 637.03 261.41 623.66 253.02 611.68 244.56 601.65 236.28 593.6 228.19 587.48 220.06 583.46 212.13 580.88 204.45 579.31 196.74 578.89 189.31 578.62 182.18 578.09 175.08 577.61 168.32 576.27 161.93 573.86 155.63 570.9 149.75 566.7 144.32 561.31 139.02 555.25 134.21 548.13 129.93 540.11 125.81 531.6 122.24 522.43 119.24 512.77 116.42 502.85 114.19 492.64 112.56 482.28 111.09 471.84 110.22 461.36 109.96 450.95 109.83 440.52 110.28 430.2 111.33 420.03 112.45 409.86 114.09 400.07 116.22 390.64 118.34 381.17 120.9 371.99 123.86 363.08 126.75 354.05 130 345.18 133.57 336.4 137.01 327.39 140.75 318.36 144.76 309.22 148.6 299.76 152.71 290.09 157.04 280.17 161.2 269.91 165.6 259.38 170.22 248.65 174.68 237.72 179.39 226.75 184.33 215.89 189.14 205.23 194.21 195.02 199.54 185.52 204.78 176.74 210.31 169.04 216.12 162.61 221.88 157.25 227.95 153.29 234.32 150.73 240.66 149 247.32 148.3 254.28 148.39 261.25 148.39 268.52 148.44 276.07 148.17 283.64 146.76 291.49 144.47 299.59 141.14 307.71 136.39 316.08 130.78 324.68 124.63 333.28 118 342.1 111.77 351.11 106.52 360.12 102.33 369.32 100.02 378.69 99.88" stroke-dasharray="5 9" transform="rotate(0, 400, 400)" opacity="0.27"></path><path d="M380.39 110.47C389.43 112.02 398.47 115.47 407.47 120.43 416.48 126.05 425.49 132.23 434.47 138.45 443.48 143.91 452.5 148.65 461.52 152.47 470.61 154.86 479.73 156.33 488.87 157.06 498.12 156.84 507.42 156.47 516.77 156.31 526.25 156.21 535.79 156.96 545.38 158.8 555.08 161.46 564.82 165.49 574.54 170.85 584.34 177.21 594.08 184.77 603.68 193.33 613.25 202.55 622.59 212.43 631.61 222.73 640.43 233.22 648.78 243.83 656.55 254.4 663.93 264.81 670.57 275.02 676.36 285.01 681.58 294.69 685.82 304.14 688.98 313.4 691.47 322.35 692.83 331.21 693.03 340.03 692.59 348.64 691.04 357.32 688.43 366.13 685.38 374.84 681.44 383.76 676.74 392.95 671.95 402.1 666.67 411.56 661.05 421.36 655.78 431.16 650.57 441.06 645.58 451.04 641.25 460.99 637.28 470.97 633.71 480.88 630.94 490.7 628.57 500.35 626.58 509.68 625.32 518.76 624.32 527.36 623.5 535.3 623.07 546.11 622.23 562.06 621.27 566.81 617.1 570.7 604.2 574.74 597.32 579.45 592.27 584.91 586.59 592.13 580.32 601.19 573.83 612.12 566.81 624.49 559.31 637.81 551.65 651.52 543.57 664.77 535.13 676.67 526.59 686.64 517.74 693.75 508.63 697.39 499.48 697.76 490.1 694.5 480.56 687.97 471 679.51 461.3 669.54 451.49 659.26 441.67 650.5 431.76 643.8 421.77 640.07 411.78 640.32 401.96 643.98 392.31 650.45 382.65 659.41 373.16 669.14 363.84 678.43 354.5 686.77 345.32 692.55 336.3 695.13 327.25 694.63 318.35 690.51 309.6 683.1 300.81 673.19 292.17 661.16 283.68 647.88 275.14 634.22 266.75 620.8 258.53 608.25 250.26 597.12 242.17 587.61 234.27 579.8 226.34 573.9 218.61 569.51 211.13 566.31 203.65 564.45 196.44 563.12 189.53 561.94 182.66 561.18 176.13 559.98 169.97 558.09 163.9 555.97 158.24 552.88 153.03 548.78 147.95 544.21 143.35 538.64 139.26 532.16 135.34 525.25 131.94 517.59 129.1 509.31 126.44 500.77 124.35 491.78 122.84 482.46 121.5 473.03 120.73 463.4 120.55 453.66 120.5 443.89 121.02 434.07 122.11 424.23 123.27 414.39 124.94 404.77 127.08 395.36 129.21 385.92 131.77 376.63 134.7 367.47 137.57 358.2 140.79 348.98 144.31 339.74 147.72 330.32 151.41 320.8 155.35 311.13 159.14 301.22 163.18 291.11 167.43 280.81 171.52 270.3 175.83 259.66 180.36 248.96 184.73 238.27 189.32 227.72 194.14 217.49 198.82 207.66 203.74 198.46 208.91 190.11 213.98 182.58 219.31 176.17 224.91 171.04 230.44 166.86 236.26 163.96 242.36 162.26 248.42 161.15 254.79 160.83 261.43 161.03 268.06 160.92 274.98 160.67 282.18 159.95 289.38 158.06 296.85 155.26 304.58 151.49 312.31 146.41 320.3 140.61 328.52 134.42 336.73 127.87 345.18 121.81 353.83 116.75 362.47 112.76 371.33 110.57 380.38 110.47" stroke-dasharray="2 5" transform="rotate(4.04, 400, 400)" opacity="0.26"></path><path d="M382.73 121.06C391.46 122.56 400.21 125.88 408.96 130.65 417.72 136.12 426.49 142.19 435.26 148.39 444.07 153.97 452.91 158.96 461.76 163.13 470.67 165.98 479.62 167.94 488.61 169.11 497.68 169.27 506.8 169.12 515.96 168.99 525.22 168.69 534.53 169 543.85 170.16 553.25 171.93 562.65 174.9 572 179.08 581.38 184.17 590.65 190.46 599.75 197.8 608.77 205.89 617.53 214.78 625.92 224.26 634.1 234.12 641.79 244.27 648.88 254.57 655.6 264.9 661.59 275.19 666.75 285.35 671.38 295.35 675.09 305.17 677.79 314.81 679.88 324.25 680.93 333.54 680.92 342.73 680.34 351.75 678.75 360.75 676.19 369.77 673.25 378.69 669.51 387.71 665.07 396.85 660.55 405.96 655.58 415.24 650.27 424.7 645.28 434.15 640.33 443.55 635.53 452.85 631.34 462.13 627.43 471.26 623.86 480.17 621.01 488.96 618.51 497.42 616.34 505.41 614.84 513.17 613.57 520.32 612.47 526.75 610.81 541.47 607.42 553.48 605.07 554.88 602.07 556.71 592.91 564.04 586.68 571.38 582.12 578.47 576.97 587.13 571.26 597.32 565.36 608.92 558.94 621.48 552.05 634.48 545.02 647.39 537.56 659.44 529.73 669.85 521.8 678.2 513.54 683.72 505 685.97 496.42 685.27 487.58 681.35 478.55 674.59 469.5 666.31 460.28 656.83 450.91 647.22 441.54 639.12 432.04 632.94 422.44 629.48 412.84 629.64 403.36 632.9 394.03 638.74 384.69 646.95 375.48 656.02 366.42 664.87 357.35 673.11 348.41 679.22 339.62 682.59 330.8 683.29 322.11 680.67 313.57 674.94 304.99 666.72 296.55 656.25 288.25 644.21 279.92 631.4 271.73 618.33 263.71 605.65 255.65 593.87 247.77 583.29 240.08 574.1 232.38 566.55 224.88 560.43 217.63 555.55 210.39 552.07 203.42 549.36 196.75 547.12 190.13 545.58 183.85 543.96 177.93 542.01 172.11 540.13 166.69 537.59 161.71 534.28 156.86 530.71 152.47 526.28 148.59 521.01 144.86 515.43 141.65 509.08 138.98 502.05 136.48 494.78 134.53 486.96 133.15 478.68 131.92 470.29 131.25 461.54 131.15 452.51 131.18 443.46 131.76 434.18 132.89 424.73 134.09 415.28 135.78 405.88 137.91 396.54 140.05 387.18 142.59 377.84 145.5 368.5 148.35 359.1 151.53 349.63 155.01 340.07 158.37 330.4 162.01 320.58 165.89 310.61 169.62 300.52 173.59 290.27 177.77 279.92 181.79 269.53 186.03 259.12 190.46 248.83 194.74 238.72 199.24 228.93 203.94 219.64 208.51 210.87 213.3 202.87 218.32 195.81 223.24 189.57 228.4 184.45 233.8 180.53 239.13 177.41 244.73 175.4 250.59 174.37 256.4 173.69 262.49 173.55 268.84 173.7 275.17 173.35 281.78 172.7 288.66 171.48 295.52 169.08 302.65 165.79 310.03 161.61 317.4 156.26 325.03 150.32 332.89 144.12 340.75 137.69 348.84 131.82 357.15 126.98 365.45 123.18 373.98 121.13 382.72 121.06" stroke-dasharray="11 7" transform="rotate(8.08, 400, 400)" opacity="0.71"></path><path d="M385.65 131.65C394.08 133.1 402.55 136.27 411.03 140.86 419.53 146.15 428.06 152.08 436.6 158.23 445.19 163.89 453.81 169.08 462.45 173.56 471.15 176.86 479.9 179.29 488.67 180.95 497.52 181.55 506.41 181.74 515.32 181.76 524.3 181.44 533.31 181.49 542.3 182.17 551.35 183.23 560.35 185.28 569.27 188.39 578.18 192.29 586.94 197.31 595.49 203.39 603.94 210.22 612.09 217.94 619.85 226.37 627.38 235.29 634.41 244.68 640.85 254.37 646.92 264.26 652.29 274.25 656.86 284.25 660.95 294.24 664.16 304.13 666.44 313.89 668.18 323.55 668.95 333.07 668.76 342.45 668.06 351.73 666.45 360.92 663.96 370.04 661.15 379.1 657.6 388.14 653.41 397.16 649.17 406.18 644.49 415.21 639.49 424.27 634.78 433.32 630.07 442.16 625.48 450.76 621.43 459.33 617.6 467.6 614.05 475.5 611.15 483.3 608.54 490.64 606.21 497.42 603.74 506.97 600.33 522.15 599.01 527.59 596.54 534.88 589.87 543.64 586.01 548.2 583.14 552.73 579.71 558.37 575.74 565.29 571.6 573.73 566.92 583.47 561.71 594.37 556.34 606.23 550.48 618.59 544.15 630.93 537.7 642.79 530.83 653.48 523.57 662.33 516.23 669.09 508.55 673.11 500.57 674.1 492.54 672.48 484.25 668.03 475.73 661.17 467.19 653.13 458.45 644.17 449.54 635.22 440.62 627.77 431.55 622.1 422.35 618.89 413.15 618.97 404.04 621.84 395.05 627.09 386.05 634.58 377.15 642.97 368.38 651.34 359.6 659.37 350.93 665.68 342.38 669.67 333.82 671.4 325.37 670.14 317.06 665.99 308.72 659.46 300.5 650.61 292.42 640 284.32 628.31 276.36 615.96 268.57 603.54 260.75 591.57 253.1 580.35 245.65 570.17 238.2 561.29 230.95 553.66 223.95 547.21 216.98 542.08 210.27 537.87 203.86 534.32 197.51 531.62 191.49 529.14 185.83 526.65 177.69 523.21 163.67 513.92 157.92 507.58 154.4 502.94 151.38 497.58 148.88 491.55 146.55 485.35 144.74 478.54 143.48 471.19 142.37 463.75 141.8 455.84 141.77 447.52 141.88 439.18 142.5 430.48 143.66 421.47 144.9 412.45 146.6 403.35 148.73 394.17 150.86 384.99 153.38 375.71 156.26 366.35 159.08 356.95 162.22 347.42 165.64 337.77 168.96 328.07 172.54 318.23 176.36 308.28 180.04 298.31 183.94 288.27 188.05 278.23 192.01 268.29 196.17 258.48 200.52 248.93 204.72 239.7 209.13 230.94 213.73 222.8 218.19 215.26 222.87 208.56 227.75 202.82 232.53 197.84 237.54 193.92 242.77 191.06 250.62 188.18 267.47 186.42 276.48 186.29 282.54 185.59 288.87 184.47 295.44 182.72 302 179.8 308.81 176.05 315.87 171.5 322.92 165.93 330.21 159.9 337.75 153.73 345.27 147.46 353.03 141.81 361.01 137.19 368.99 133.61 377.2 131.69 385.64 131.65" stroke-dasharray="1 1" transform="rotate(12.12, 400, 400)" opacity="0.15"></path><path d="M389.05 142.25C397.18 143.63 405.36 146.66 413.58 151.05 421.8 156.14 430.07 161.91 438.38 167.97 446.71 173.66 455.08 179.01 463.49 183.76 471.94 187.46 480.43 190.36 488.95 192.51 497.52 193.61 506.12 194.21 514.73 194.51 523.38 194.32 532.03 194.3 540.64 194.68 549.27 195.24 557.83 196.57 566.27 198.78 574.67 201.61 582.89 205.45 590.87 210.29 598.72 215.83 606.25 222.28 613.38 229.51 620.26 237.29 626.65 245.65 632.45 254.46 637.91 263.58 642.68 272.95 646.71 282.45 650.29 292.06 653.05 301.69 654.95 311.27 656.37 320.84 656.91 330.31 656.55 339.66 655.78 348.96 654.17 358.15 651.76 367.21 649.07 376.24 645.72 385.17 641.78 393.99 637.8 402.81 633.41 411.53 628.72 420.14 624.27 428.74 619.81 437.01 615.43 444.92 611.52 452.8 607.79 460.27 604.28 467.28 601.35 474.2 598.65 480.59 596.19 486.4 593.43 494.59 589.3 507.49 587.61 512.25 584.59 520.01 577.74 532.88 574.08 539.7 571.42 545.72 568.26 552.79 564.6 561.01 560.82 570.43 556.54 580.85 551.77 592.04 546.88 603.75 541.51 615.56 535.7 626.96 529.78 637.57 523.45 646.79 516.74 654.07 509.95 659.3 502.82 661.95 495.38 661.81 487.89 659.43 480.13 654.59 472.12 647.72 464.08 639.99 455.83 631.57 447.38 623.29 438.93 616.46 430.3 611.27 421.52 608.3 412.74 608.3 404.01 610.82 395.37 615.51 386.73 622.29 378.16 630 369.7 637.84 361.23 645.59 352.85 651.98 344.58 656.43 336.3 659 328.12 658.95 320.06 656.25 311.99 651.34 304.03 644.13 296.2 635.05 288.36 624.7 280.66 613.37 273.11 601.59 265.57 589.84 258.18 578.44 250.99 567.7 243.82 557.89 236.85 549.08 230.12 541.29 223.43 534.67 217 528.97 210.87 524.02 204.81 519.98 199.07 516.37 193.68 512.99 185.94 508.6 172.68 498.96 167.26 493.08 162.54 486.57 155.8 470.4 153.83 460.79 152.84 454.13 152.36 446.94 152.41 439.29 152.58 431.6 153.26 423.47 154.44 414.93 155.7 406.39 157.4 397.65 159.52 388.76 161.64 379.87 164.14 370.81 166.97 361.61 169.75 352.41 172.85 343.06 176.21 333.59 179.48 324.13 183 314.57 186.75 304.96 190.38 295.43 194.22 285.92 198.25 276.54 202.15 267.36 206.23 258.44 210.51 249.91 214.63 241.78 218.95 234.22 223.45 227.37 227.82 221.11 232.39 215.7 237.16 211.23 244.25 205.96 259.36 200.57 267.42 199.82 272.8 199.4 278.42 199.09 284.28 198.69 290.1 197.55 296.17 195.91 302.47 193.6 308.75 190.19 315.27 186.02 322.04 181.16 328.78 175.43 335.77 169.37 342.99 163.28 350.2 157.2 357.65 151.78 365.33 147.4 373 144.03 380.9 142.25 389.04 142.24" stroke-dasharray="2 8" transform="rotate(16.16, 400, 400)" opacity="0.26"></path><path d="M392.81 152.84C400.65 154.17 408.54 157.05 416.47 161.22 424.42 166.1 432.41 171.68 440.44 177.62 448.49 183.3 456.59 188.74 464.72 193.72 472.88 197.78 481.08 201.12 489.29 203.76 497.54 205.38 505.81 206.45 514.06 207.13 522.33 207.21 530.58 207.29 538.76 207.57 546.93 207.83 555 208.65 562.92 210.17 570.79 212.11 578.44 214.92 585.83 218.62 593.08 222.93 599.99 228.11 606.48 234.08 612.74 240.6 618.5 247.79 623.69 255.5 628.56 263.59 632.78 272.06 636.29 280.78 639.41 289.7 641.76 298.75 643.32 307.83 644.46 316.99 644.79 326.13 644.32 335.17 643.48 344.23 641.88 353.18 639.56 361.99 637.02 370.8 633.86 379.47 630.16 387.97 626.44 396.47 622.34 404.81 617.94 412.94 613.76 421.06 609.54 428.78 605.37 436.06 601.61 443.31 597.98 450.1 594.53 456.39 590.21 465.46 583.27 480.76 580.53 486.96 576.65 497.35 570.96 511.54 568.48 517.23 566.77 521.97 564.69 527.38 562.21 533.61 559.7 540.89 556.74 549.1 553.35 558.23 549.86 568.24 545.92 578.9 541.53 589.97 537.05 601.19 532.12 612.14 526.78 622.37 521.34 631.6 515.51 639.3 509.31 645.04 503.04 648.84 496.43 650.24 489.5 649.15 482.53 646.14 475.28 641.05 467.77 634.27 460.23 626.89 452.46 619.04 444.49 611.41 436.5 605.18 428.32 600.44 419.96 597.7 411.61 597.64 403.29 599.84 395.02 603.98 386.76 610.09 378.55 617.12 370.41 624.41 362.28 631.79 354.22 638.13 346.25 642.9 338.28 646.15 330.4 647.12 322.62 645.72 314.84 642.33 307.16 636.72 299.62 629.23 292.07 620.35 284.65 610.27 277.39 599.45 270.13 588.31 263.04 577.15 256.14 566.29 249.27 555.99 242.6 546.4 236.16 537.61 229.78 529.76 223.65 522.75 217.81 516.48 212.05 511.09 206.6 506.24 201.5 501.77 194.19 495.98 181.7 484.85 176.62 478.84 172.22 472.53 165.99 457.51 164.21 448.68 163.34 442.59 162.95 435.98 163.07 428.88 163.3 421.76 164.02 414.17 165.22 406.12 166.49 398.07 168.2 389.78 170.29 381.28 172.39 372.8 174.85 364.12 177.64 355.3 180.38 346.5 183.42 337.56 186.72 328.54 189.93 319.59 193.4 310.6 197.07 301.64 200.64 292.83 204.41 284.14 208.37 275.69 212.2 267.51 216.22 259.69 220.41 252.35 224.46 245.44 228.7 239.16 233.11 233.61 239.63 226.5 253.43 217.18 260.74 214.83 268.11 213.42 283.83 211.95 292.19 210.79 297.79 209.15 303.62 206.96 309.68 204.11 315.7 200.25 321.96 195.71 328.45 190.59 334.92 184.75 341.62 178.72 348.55 172.76 355.46 166.9 362.61 161.73 369.99 157.61 377.36 154.45 384.97 152.81 392.8 152.84" stroke-dasharray="1 9" transform="rotate(20.200000000000003, 400, 400)" opacity="0.32"></path><path d="M396.82 163.43C404.36 164.7 411.95 167.43 419.59 171.39 427.23 176.04 434.93 181.41 442.66 187.18 450.41 192.8 458.21 198.3 466.02 203.44 473.86 207.8 481.72 211.54 489.58 214.64 497.47 216.78 505.35 218.36 513.2 219.5 521.05 219.96 528.85 220.29 536.56 220.65 544.24 220.82 551.8 221.35 559.17 222.39 566.48 223.66 573.55 225.65 580.34 228.38 586.98 231.58 593.27 235.59 599.15 240.35 604.8 245.6 609.96 251.54 614.58 258.05 618.89 264.97 622.6 272.34 625.64 280.06 628.33 288.03 630.32 296.24 631.57 304.57 632.46 313.04 632.63 321.56 632.06 330.05 631.17 338.61 629.61 347.1 627.39 355.46 624.99 363.86 622.03 372.11 618.57 380.17 615.11 388.25 611.28 396.13 607.16 403.76 603.24 411.4 599.26 418.6 595.3 425.35 591.7 432.08 588.19 438.34 584.81 444.11 580.49 452.5 573.26 466.86 570.27 472.95 567.91 478.82 563.61 489.8 561.41 495.5 560.07 499.87 558.51 504.57 556.69 509.76 554.95 515.73 552.88 522.36 550.48 529.75 548.06 537.98 545.26 546.94 542.07 556.57 538.83 566.74 535.17 577.26 531.11 587.84 526.97 598.24 522.43 608.09 517.5 617 512.5 624.78 507.12 630.97 501.38 635.24 495.59 637.73 489.46 638.03 483.03 636.15 476.55 632.67 469.79 627.44 462.76 620.84 455.71 613.86 448.42 606.58 440.91 599.59 433.38 593.93 425.65 589.63 417.74 587.11 409.82 586.99 401.91 588.88 394.04 592.52 386.17 597.98 378.33 604.35 370.55 611.05 362.78 618.01 355.06 624.2 347.42 629.13 339.79 632.89 332.23 634.7 324.76 634.44 317.3 632.42 309.94 628.34 302.7 622.41 295.47 615.08 288.37 606.41 281.41 596.78 274.48 586.58 267.71 576.04 261.12 565.47 254.57 555.13 248.22 545.19 242.1 535.81 236.04 527.1 230.23 519.08 224.71 511.72 219.26 505.11 214.12 499.07 209.31 493.49 204.61 488.49 200.26 483.76 196.3 479.16 190.74 472.75 181.92 459.53 178.73 452.29 176.21 444.73 173.71 427.47 173.75 417.71 174.03 411.04 174.78 403.93 176 396.37 177.28 388.82 178.97 381.03 181.04 373.04 183.11 365.06 185.53 356.92 188.26 348.65 190.95 340.43 193.93 332.12 197.16 323.79 200.31 315.56 203.71 307.37 207.31 299.31 210.81 291.42 214.51 283.76 218.39 276.41 222.15 269.37 226.09 262.75 230.2 256.67 234.18 251 238.34 245.96 242.66 241.63 249.04 236.16 262.53 229.33 269.65 227.68 276.82 226.5 292.05 224.37 300.12 222.48 305.52 220.3 311.14 217.57 316.97 214.22 322.76 209.95 328.77 205.1 335.01 199.8 341.21 193.93 347.65 187.96 354.3 182.18 360.94 176.57 367.8 171.68 374.89 167.81 381.96 164.88 389.27 163.37 396.81 163.43" stroke-dasharray="9 5" transform="rotate(24.24, 400, 400)" opacity="0.12"></path><path d="M400.93 174.02C408.16 175.23 415.45 177.8 422.77 181.54 430.11 185.95 437.49 191.08 444.89 196.66 452.31 202.18 459.77 207.67 467.23 212.92 474.71 217.51 482.21 221.6 489.68 225.12 497.17 227.77 504.63 229.87 512.03 231.51 519.43 232.44 526.75 233.13 533.95 233.73 541.12 234 548.14 234.46 554.95 235.25 561.68 236.09 568.17 237.48 574.36 239.46 580.41 241.76 586.1 244.75 591.38 248.42 596.44 252.5 601.04 257.23 605.11 262.55 608.91 268.24 612.14 274.43 614.76 281.03 617.06 287.9 618.72 295.08 619.71 302.47 620.4 310.04 620.42 317.73 619.77 325.48 618.87 333.31 617.35 341.14 615.25 348.9 612.99 356.7 610.22 364.4 607 371.94 603.78 379.49 600.22 386.87 596.38 394.01 592.72 401.16 588.98 407.91 585.22 414.23 581.79 420.55 578.4 426.45 575.11 431.93 570.82 439.96 563.38 454.24 560.18 460.68 557.56 467.17 552.69 480.31 550.24 487.51 548.75 492.91 547.07 498.72 545.18 505.03 543.37 512.01 541.29 519.59 538.92 527.77 536.57 536.57 533.88 545.88 530.85 555.58 527.8 565.54 524.37 575.53 520.58 585.29 516.75 594.64 512.54 603.22 507.97 610.71 500.86 619.39 484.87 625.67 476.06 622.84 470.04 619.03 463.75 613.77 457.19 607.42 450.61 600.9 443.78 594.19 436.73 587.83 429.67 582.71 422.39 578.83 414.92 576.52 407.45 576.35 399.97 577.95 392.5 581.12 385.04 585.96 377.59 591.67 370.19 597.78 362.8 604.27 355.45 610.21 348.16 615.18 340.88 619.27 333.67 621.74 326.55 622.44 319.44 621.63 312.42 618.95 305.52 614.52 298.63 608.74 291.87 601.56 285.25 593.29 278.66 584.27 272.22 574.67 265.97 564.77 259.77 554.8 253.76 544.96 247.98 535.4 242.26 526.26 236.78 517.6 231.58 509.47 226.46 501.92 221.64 494.89 217.13 488.32 212.74 482.28 208.68 476.58 204.98 471.13 199.82 463.54 191.67 448.78 188.75 441.19 186.47 433.49 184.31 416.6 184.44 407.29 184.78 400.96 185.56 394.25 186.78 387.18 188.06 380.1 189.74 372.84 191.76 365.43 193.81 358.04 196.18 350.53 198.84 342.97 201.48 335.46 204.38 327.93 207.54 320.46 210.62 313.11 213.94 305.87 217.46 298.84 220.88 292 224.5 285.46 228.3 279.29 231.99 273.41 235.85 267.99 239.87 263.12 245.82 256.64 258.34 247.25 264.92 244.32 271.52 242.18 285.44 239.58 292.78 238.43 300.21 236.38 315.94 229.33 324.26 223.9 329.84 219.29 335.62 214.21 341.61 208.8 347.58 202.95 353.75 197.12 360.14 191.55 366.51 186.22 373.09 181.62 379.89 178.02 386.68 175.31 393.69 173.94 400.92 174.02" stroke-dasharray="2 8" transform="rotate(28.28, 400, 400)" opacity="0.27"></path><path d="M405.02 184.61C411.93 185.76 418.9 188.17 425.89 191.68 432.9 195.84 439.94 200.71 446.99 206.07 454.06 211.44 461.15 216.87 468.23 222.16 475.33 226.93 482.42 231.29 489.47 235.18 496.52 238.3 503.53 240.91 510.47 243.06 517.38 244.5 524.2 245.64 530.88 246.6 537.51 247.14 543.97 247.72 550.22 248.47 559.34 249.64 575.91 254.37 583.17 258.25 589.72 263.15 600.04 276.24 603.67 284.22 605.63 289.95 607 296.03 607.76 302.39 608.27 308.93 608.17 315.67 607.48 322.54 606.58 329.52 605.12 336.55 603.13 343.59 601.01 350.68 598.44 357.73 595.45 364.68 592.47 371.65 589.17 378.49 585.6 385.18 582.19 391.86 578.68 398.21 575.14 404.22 571.87 410.24 568.62 415.93 565.44 421.3 561.2 429.26 553.64 444.08 550.28 451.17 547.43 458.5 542.06 474.01 539.39 482.61 537.74 488.91 535.95 495.62 533.97 502.79 532.1 510.47 529.99 518.63 527.63 527.21 525.31 536.18 522.7 545.42 519.79 554.8 516.88 564.17 513.64 573.33 510.08 582.03 506.49 590.15 502.57 597.36 498.32 603.4 491.72 609.98 476.9 612.98 468.71 609.29 463.13 605.28 457.28 600.09 451.17 594.06 445.04 588.01 438.66 581.89 432.06 576.13 425.45 571.53 418.62 568.04 411.6 565.93 404.58 565.72 397.53 567.06 390.48 569.79 383.44 574.04 376.4 579.11 369.4 584.62 362.4 590.59 355.43 596.21 348.53 601.1 341.63 605.38 334.79 608.33 328.04 609.79 321.3 610.01 314.65 608.56 308.11 605.52 301.59 601.23 295.19 595.56 288.93 588.72 282.7 581.05 276.63 572.62 270.74 563.68 264.9 554.46 259.25 545.1 253.82 535.8 248.45 526.65 243.32 517.78 238.46 509.26 233.68 501.13 229.18 493.42 224.99 486.12 220.9 479.25 217.13 472.72 213.71 466.48 210.41 460.59 207.48 454.87 204.92 449.27 201.47 441.2 196.77 424.99 195.55 416.6 195 410.98 194.86 405.13 195.15 399.03 195.54 392.93 196.34 386.57 197.56 379.94 198.84 373.31 200.48 366.58 202.47 359.79 204.47 353.01 206.78 346.21 209.37 339.42 211.94 332.69 214.77 326.02 217.84 319.49 220.85 313.07 224.08 306.85 227.51 300.89 230.85 295.11 234.39 289.67 238.09 284.64 243.59 277.68 255.22 266.65 261.34 262.67 267.47 259.49 280.34 255.39 287.1 254.04 293.89 252.41 308.23 247.84 315.78 244.3 320.83 241.07 326.05 237.35 331.47 233.15 336.84 228.28 342.4 223.05 348.16 217.6 353.89 211.85 359.82 206.2 365.94 200.88 372.05 195.85 378.36 191.56 384.87 188.23 391.38 185.74 398.09 184.5 405.01 184.61" stroke-dasharray="7 6" transform="rotate(32.32, 400, 400)" opacity="0.72"></path><path d="M408.93 195.21C415.52 196.28 422.15 198.53 428.8 201.81 435.46 205.71 442.14 210.31 448.82 215.41 455.52 220.59 462.21 225.91 468.89 231.18 475.57 236.04 482.23 240.62 488.83 244.81 495.43 248.33 501.97 251.41 508.41 254.05 514.82 256.03 521.12 257.68 527.26 259.08 536.31 260.44 553.21 262.92 560.91 264.6 568.09 266.67 580.31 273.31 585.2 278 589.3 283.51 594.6 297.08 595.73 304.93 596.09 310.43 595.9 316.19 595.19 322.14 594.29 328.19 592.9 334.38 591.03 340.65 589.07 346.97 586.69 353.33 583.93 359.67 581.18 366.03 578.13 372.35 574.82 378.59 571.65 384.84 568.37 390.86 565.04 396.65 561.95 402.45 558.85 408.04 555.78 413.43 553 418.86 550.26 424.14 547.57 429.31 544.02 437.2 537.51 453.26 534.47 461.75 532.66 467.76 530.8 474.04 528.85 480.62 527.07 487.57 525.16 494.88 523.11 502.56 521.15 510.58 519 518.91 516.64 527.49 514.32 536.23 511.76 545.03 508.95 553.73 506.14 562.23 503.05 570.32 499.68 577.79 494.46 587.49 482.5 599.65 475.78 601.35 471.17 600.82 466.28 598.85 461.12 595.52 455.94 591.44 450.5 586.42 444.82 580.76 439.11 575.2 433.17 569.65 427.01 564.48 420.85 560.38 414.47 557.25 407.89 555.34 401.31 555.09 394.7 556.19 388.09 558.51 381.47 562.21 374.86 566.66 368.26 571.57 361.68 577.01 355.12 582.24 348.61 586.94 342.12 591.25 335.68 594.52 329.31 596.55 322.97 597.6 316.7 597.22 310.55 595.41 304.42 592.5 298.4 588.27 292.52 582.88 286.68 576.64 280.99 569.54 275.47 561.78 270.01 553.59 264.73 545.05 259.66 536.36 254.66 527.61 249.89 518.94 245.37 510.44 240.94 502.15 236.77 494.13 232.89 486.43 229.12 479.02 225.65 471.91 222.51 465.1 219.47 458.56 216.78 452.25 214.46 446.12 212.24 440.18 210.4 434.34 208.94 428.55 207.11 420.03 205.58 402.82 205.89 393.97 206.31 388.05 207.12 381.97 208.34 375.75 209.6 369.53 211.22 363.32 213.15 357.14 215.1 350.97 217.34 344.87 219.86 338.87 222.35 332.91 225.1 327.11 228.07 321.5 231 315.99 234.13 310.74 237.46 305.79 242.43 298.76 253.11 286.92 258.78 282.23 264.46 278.24 276.41 272.5 282.68 270.53 288.96 268.63 302.16 264.76 309.08 262.26 313.68 259.96 318.44 257.32 323.37 254.29 328.24 250.6 333.29 246.49 338.5 241.98 343.67 236.94 349.03 231.64 354.55 226.23 360.06 220.63 365.74 215.22 371.6 210.19 377.45 205.48 383.49 201.51 389.71 198.45 395.92 196.18 402.33 195.07 408.92 195.2" stroke-dasharray="8 3" transform="rotate(36.36, 400, 400)" opacity="0.46"></path><path d="M412.55 205.8C418.8 206.81 425.08 208.9 431.37 211.94 437.67 215.57 443.97 219.88 450.26 224.7 462.86 234.58 475.4 244.69 487.68 253.98 499.92 261.08 511.8 266.67 523.07 270.98 534.11 273.33 544.33 275.44 553.42 277.95 562.02 280.11 569.24 283.63 574.8 288.71 579.62 294.33 582.62 301.63 583.63 310.35 583.93 319.57 582.36 329.86 578.97 340.85 577.16 346.41 574.97 352.08 572.43 357.84 569.91 363.6 567.1 369.42 564.04 375.27 561.11 381.12 558.06 386.86 554.94 392.49 552.02 398.12 549.08 403.67 546.13 409.14 541 420.21 535.93 431.25 530.98 442.53 526.99 454.51 522.92 467.29 518.65 481.07 515 495.85 510.82 511.65 506 527.97 501.42 544.17 495.94 559.43 489.5 572.36 483.07 582.44 475.57 588.18 467.05 588.72 458.46 585.49 448.84 577.95 438.28 567.55 432.98 562.49 427.46 557.51 421.73 552.9 415.99 549.26 410.05 546.48 403.92 544.74 397.78 544.47 391.61 545.35 385.43 547.3 379.25 550.47 373.07 554.35 366.9 558.66 354.59 568.72 342.38 577.37 330.44 582.83 318.6 585.31 307.08 582.79 296.08 575.65 285.24 565.25 275 551.72 265.55 536.44 256.37 520.34 248.07 504.13 240.87 488.52 234.04 473.57 228.37 459.53 224.06 446.39 220.16 433.88 217.64 421.85 216.62 410.11 216.26 401.42 217.51 384.02 219.12 375.26 220.36 369.41 221.94 363.67 223.81 358.06 225.7 352.46 227.87 347.01 230.3 341.73 235.1 331.29 240.83 321.78 247.3 313.49 253.55 305.59 260.49 299.13 267.99 294.25 275.18 289.6 282.96 286.21 291.24 283.76 299.22 280.49 307.78 277.13 316.87 273.09 325.73 266.9 335.21 259.32 345.27 250.41 355.19 239.83 365.78 229.11 377 219.47 382.59 215.11 388.35 211.46 394.27 208.68 400.19 206.62 406.28 205.64 412.54 205.8" stroke-dasharray="5 10" transform="rotate(40.400000000000006, 400, 400)" opacity="0.19"></path><path d="M415.74 216.39C427.56 219.01 439.42 225.22 451.18 233.94 462.95 243.36 474.6 253.28 485.93 262.72 497.2 270.43 508.05 276.88 518.26 282.14 528.23 285.51 537.38 288.38 545.43 291.29 553.04 293.5 559.35 296.61 564.11 300.91 568.26 305.38 570.76 311.29 571.48 318.56 571.62 326.13 570.09 334.87 566.95 344.52 563.59 354.28 558.96 364.74 553.26 375.71 547.98 386.69 542.31 397.68 536.5 408.69 531.52 419.87 526.52 431.37 521.57 443.34 517.44 455.83 513.2 469.14 508.77 483.22 504.91 497.84 500.61 512.98 495.75 528.02 491.16 542.4 485.79 555.31 479.62 565.58 473.48 573.09 466.42 576.58 458.45 575.52 450.43 571.51 441.49 564.04 431.69 554.42 421.86 545.79 411.2 538.49 399.81 534.15 388.43 534.84 376.9 539.15 365.42 545.89 353.98 554.87 342.62 563 331.53 568.71 320.54 572.28 309.85 571.66 299.67 566.94 289.66 559.29 280.21 548.43 271.53 535.45 263.09 521.26 255.51 506.35 248.95 491.52 242.72 476.85 237.6 462.77 233.73 449.45 230.24 436.56 228.03 424.25 227.21 412.49 226.73 400.89 227.6 389.56 229.89 378.54 232.37 367.51 236.04 357.28 240.69 347.96 245.32 338.71 250.82 330.53 257.05 323.6 263.08 316.84 269.78 311.38 277.02 307.19 284.01 302.89 291.54 299.45 299.55 296.51 307.31 292.53 315.59 288.19 324.36 283.04 332.93 275.96 342.05 267.7 351.7 258.45 361.23 248 371.35 237.74 382.03 228.75 392.66 221.2 403.91 216.81 415.73 216.39" stroke-dasharray="2 2" transform="rotate(44.44, 400, 400)" opacity="0.87"></path><path d="M418.41 226.98C429.5 229.39 440.58 235.08 451.5 243.15 462.42 252.03 473.15 261.61 483.52 271.05 493.81 279.16 503.65 286.32 512.81 292.43 521.77 296.83 529.89 300.6 536.97 304.16 546.39 308.39 557.77 320.32 559.29 329.06 559.32 335.4 557.86 342.91 554.95 351.45 551.9 360.04 547.7 369.54 542.48 379.85 537.63 390.16 532.35 400.84 526.88 411.82 522.09 422.94 517.21 434.59 512.3 446.78 508.1 459.3 503.75 472.5 499.23 486.18 495.21 499.98 490.8 513.83 485.94 527.06 481.33 539.27 476.07 549.69 470.12 557.38 464.24 562.56 457.56 564.13 450.08 561.85 442.59 557.36 434.28 550.17 425.2 541.4 416.09 533.79 406.24 527.41 395.71 523.56 385.19 524.04 374.54 527.58 363.93 533.28 353.37 541.17 342.89 548.61 332.66 554.3 322.53 558.58 312.7 559.44 303.36 556.8 294.17 551.65 285.54 543.42 277.62 532.91 269.94 520.99 263.06 507.92 257.13 494.44 251.52 480.76 246.92 467.28 243.49 454.34 240.38 441.6 238.47 429.41 237.84 417.86 237.51 406.43 238.43 395.48 240.67 385.08 243.08 374.69 246.6 365.3 251.04 356.96 255.47 348.64 260.74 341.43 266.68 335.37 272.48 329.32 278.92 324.34 285.87 320.33 292.61 315.95 299.87 312.08 307.58 308.37 315.08 303.53 323.07 298.19 331.49 292.04 339.75 284.24 348.51 275.51 357.72 266.15 366.84 256.01 376.48 246.32 386.6 238.03 396.69 231.19 407.31 227.28 418.41 226.98" stroke-dasharray="8 8" transform="rotate(48.48, 400, 400)" opacity="0.40"></path><path d="M420.46 237.57C430.81 239.77 441.08 244.94 451.14 252.34 461.19 260.6 471 269.74 480.4 278.98 489.73 287.3 498.57 294.95 506.74 301.77 514.7 307.12 521.87 311.82 528.04 316.16 536.24 321.3 545.92 333.18 547.07 341.09 547.02 346.66 545.65 353.3 543 360.99 540.24 368.68 536.44 377.38 531.71 387.06 527.27 396.74 522.39 406.99 517.26 417.71 512.7 428.52 507.98 439.93 503.17 451.82 498.95 463.86 494.57 476.35 490 488.99 485.88 501.42 481.42 513.5 476.57 524.57 471.96 534.46 466.8 542.42 461.06 547.74 455.41 550.9 449.08 550.94 442.07 547.8 435.06 543.11 427.33 536.36 418.94 528.5 410.52 521.87 401.44 516.37 391.76 512.97 382.08 513.26 372.3 516.11 362.57 520.83 352.88 527.62 343.28 534.27 333.93 539.7 324.67 544.33 315.71 546.26 307.22 545.28 298.86 542.3 291.03 536.49 283.88 528.43 276.95 518.94 270.76 508.03 265.46 496.35 260.43 484.2 256.34 471.9 253.33 459.84 250.61 447.79 248.97 436.16 248.52 425.11 248.32 414.13 249.28 403.68 251.45 393.9 253.78 384.12 257.13 375.41 261.35 367.78 265.56 360.11 270.57 353.49 276.22 347.87 281.75 342.11 287.89 337.19 294.53 332.93 300.99 328.16 307.95 323.61 315.33 319 322.53 313.29 330.19 307.03 338.24 300.06 346.15 291.77 354.51 282.82 363.27 273.56 371.95 263.88 381.08 254.87 390.63 247.33 400.14 241.2 410.1 237.76 420.46 237.57" stroke-dasharray="10 2" transform="rotate(52.52, 400, 400)" opacity="0.20"></path><path d="M421.82 248.17C431.41 250.16 440.85 254.81 450.05 261.51 459.22 269.11 468.11 277.68 476.57 286.57 484.95 294.87 492.83 302.8 500.04 310.11 507.08 316.23 513.35 321.79 518.69 326.92 525.78 333.2 533.99 346 534.85 353.64 534.74 358.85 533.48 364.98 531.08 372.07 528.62 379.13 525.21 387.18 520.93 396.24 516.9 405.3 512.41 414.99 507.65 425.17 503.34 435.4 498.82 446.15 494.16 457.25 490 468.33 485.64 479.6 481.09 490.7 476.94 501.39 472.47 511.41 467.66 520.2 463.09 527.8 458.04 533.47 452.52 536.72 447.09 538.23 441.08 537.13 434.51 533.48 427.95 528.83 420.78 522.65 413.03 515.74 405.27 510.05 396.93 505.35 388.08 502.37 379.23 502.51 370.3 504.74 361.44 508.55 352.62 514.27 343.9 520.05 335.43 525.04 327.04 529.69 318.94 532.28 311.29 532.55 303.76 531.31 296.73 527.62 290.34 521.81 284.14 514.71 278.62 506.06 273.93 496.41 269.48 486.16 265.88 475.45 263.27 464.69 260.9 453.8 259.53 443.1 259.24 432.84 259.16 422.59 260.14 412.81 262.23 403.65 264.46 394.48 267.63 386.33 271.61 379.15 275.59 371.91 280.31 365.56 285.64 360.02 290.88 354.25 296.7 349.07 302.98 344.29 309.14 338.95 315.76 333.64 322.77 328.13 329.64 321.65 336.93 314.66 344.57 307.12 352.1 298.59 360.03 289.67 368.3 280.73 376.5 271.67 385.1 263.42 394.04 256.66 402.95 251.24 412.23 248.26 421.82 248.17" stroke-dasharray="2 7" transform="rotate(56.56, 400, 400)" opacity="0.16"></path><path d="M422.45 258.76C431.25 260.54 439.86 264.68 448.18 270.68 456.49 277.56 464.47 285.47 472.01 293.85 479.47 301.93 486.43 309.89 492.75 317.46 498.92 324.13 504.36 330.35 508.96 336.18 515.06 343.61 521.98 357.87 522.62 365.66 522.49 370.83 521.35 376.72 519.2 383.41 517.02 390.04 513.99 397.56 510.15 405.99 506.52 414.42 502.43 423.39 498.03 432.77 494 442.16 489.72 451.91 485.27 461.8 481.21 471.56 476.94 481.26 472.49 490.52 468.35 499.27 463.93 507.15 459.22 513.7 452.27 521.03 436.48 523.75 427.48 518.98 421.36 514.58 414.71 509.08 407.59 503.11 400.47 498.32 392.85 494.36 384.8 491.78 376.75 491.79 368.67 493.47 360.67 496.45 352.7 501.14 344.85 506.01 337.25 510.4 329.72 514.8 322.48 517.7 315.65 518.79 308.94 518.85 302.69 516.86 297.04 512.99 291.54 508.06 286.69 501.6 282.58 494.01 278.67 485.8 275.55 476.91 273.31 467.71 271.28 458.29 270.15 448.83 270 439.59 270.02 430.32 271.01 421.35 273.01 412.84 275.13 404.32 278.11 396.64 281.82 389.75 285.56 382.78 289.97 376.49 294.95 370.79 299.88 364.83 305.34 359.24 311.25 353.84 317.05 347.91 323.29 341.89 329.89 335.63 336.39 328.58 343.27 321.12 350.46 313.29 357.57 304.8 365.02 296.16 372.77 287.73 380.47 279.41 388.5 271.99 396.79 266.03 405.07 261.31 413.65 258.76 422.45 258.76" stroke-dasharray="2 4" transform="rotate(60.599999999999994, 400, 400)" opacity="0.56"></path><path d="M422.33 269.35C430.33 270.93 438.1 274.57 445.56 279.87 453 286 460.1 293.16 466.75 300.9 473.34 308.56 479.43 316.3 484.91 323.87 490.27 330.82 494.97 337.46 498.89 343.78 504.11 352.19 509.93 367.99 510.41 376.12 510.28 381.43 509.26 387.26 507.37 393.67 505.45 400.02 502.78 407.07 499.36 414.83 496.12 422.59 492.43 430.73 488.41 439.1 484.69 447.44 480.68 455.94 476.48 464.36 472.59 472.6 468.47 480.53 464.17 487.85 460.12 494.67 455.81 500.51 451.25 505.05 444.51 509.75 429.48 509.33 421.07 504.42 415.37 500.44 409.24 495.68 402.73 490.64 396.21 486.68 389.3 483.4 382.03 481.19 374.76 481.09 367.5 482.29 360.34 484.52 353.21 488.26 346.22 492.21 339.47 495.91 332.77 499.86 326.36 502.74 320.35 504.26 311.68 504.8 297.07 496.73 291.41 488.79 288.02 482.57 285.35 475.53 283.46 467.98 281.75 460.2 280.84 452.15 280.8 444.07 280.92 435.94 281.9 427.89 283.79 420.07 285.78 412.25 288.55 405 292 398.32 295.46 391.56 299.55 385.25 304.17 379.31 308.75 373.13 313.82 367.12 319.31 361.17 324.73 354.77 330.55 348.22 336.71 341.46 342.78 334.12 349.21 326.5 355.9 318.69 362.54 310.51 369.48 302.38 376.67 294.63 383.82 287.16 391.24 280.62 398.87 275.46 406.48 271.41 414.33 269.28 422.33 269.35" stroke-dasharray="6 4" transform="rotate(64.64, 400, 400)" opacity="0.85"></path><path d="M421.46 279.94C428.65 281.33 435.58 284.48 442.19 289.09 448.78 294.44 455.02 300.8 460.82 307.78 466.58 314.85 471.85 322.15 476.57 329.44 481.19 336.37 485.2 343.15 488.53 349.7 491.72 355.77 494.2 361.7 495.9 367.52 497.86 375.75 497.67 392.58 495.57 401.65 493.92 407.77 491.59 414.35 488.59 421.4 485.72 428.46 482.42 435.66 478.79 442.89 475.39 450.08 471.69 457.2 467.78 464.05 464.11 470.71 460.21 476.9 456.11 482.37 450.16 489.43 437.29 496.99 430.28 496.87 425.61 495.75 420.61 493.37 415.31 489.9 410.04 486.46 404.43 482.47 398.51 478.32 392.6 475.14 386.37 472.47 379.86 470.6 373.35 470.41 366.89 471.2 360.56 472.78 354.24 475.63 348.07 478.7 342.15 481.66 333.47 486.3 317.9 490.61 311.26 489.44 305.28 486.22 296.42 473.58 293.73 464.96 292.3 458.79 291.59 452.17 291.66 445.31 291.85 438.39 292.8 431.33 294.57 424.24 296.42 417.16 298.97 410.39 302.13 403.93 305.3 397.41 309.05 391.12 313.28 385 317.48 378.7 322.15 372.42 327.19 366.11 332.18 359.48 337.55 352.68 343.21 345.74 348.83 338.43 354.75 330.97 360.91 323.49 367.03 315.86 373.41 308.44 379.99 301.52 386.55 294.96 393.33 289.32 400.26 284.95 407.18 281.55 414.28 279.8 421.46 279.94" stroke-dasharray="0 10" transform="rotate(68.68, 400, 400)" opacity="0.93"></path><path d="M419.87 290.53C432.6 293.87 444.25 302.61 454.3 314.57 464.19 327.26 472.25 340.83 477.94 354.03 483.26 366.03 486.08 377.77 486.09 389.34 485.86 400.33 483.09 412.11 477.81 424.71 472.94 437.32 466.5 449.56 459.16 460.41 452.55 470.58 444.95 478.16 436.67 481.83 428.84 483.81 419.97 481.54 410.23 475.54 400.62 470.19 389.89 464.36 378.37 460.01 366.84 460.84 355.64 463.94 345.36 467.74 335.2 473.29 326.15 476.18 318.83 475.4 311.82 473.41 306.74 467.48 304.11 458.52 301.88 448.9 302.17 437.33 305.35 424.72 308.8 412.12 314.67 399.71 322.29 387.63 329.89 375.05 339.13 362 349.41 348.69 359.59 334.66 370.87 320.72 382.75 308.46 394.59 297.77 407.14 291.17 419.87 290.53" stroke-dasharray="3 2" transform="rotate(72.72, 400, 400)" opacity="0.96"></path><path d="M417.62 301.13C428.7 303.9 438.71 311.18 447.24 321.35 455.66 332.43 462.44 344.71 467.16 357 471.64 368.69 474 380.25 473.99 391.42 473.85 402.23 471.54 413.24 467.03 424.26 462.83 435.28 457.16 445.22 450.61 453.38 444.58 461.05 437.6 466.14 430 467.93 422.76 468.78 414.63 466.42 405.85 461.41 397.18 457.34 387.66 452.91 377.6 449.41 367.54 449.85 357.89 451.78 349.13 454.23 336.65 459.58 318.77 457.71 314.61 448.97 312.84 441.78 313.23 432.41 316.13 421.44 319.23 410.46 324.46 398.99 331.21 387.39 337.97 375.52 346.19 363.11 355.34 350.67 364.43 338.04 374.47 325.87 384.99 315.55 395.49 306.74 406.54 301.47 417.62 301.13" stroke-dasharray="4 10" transform="rotate(76.76, 400, 400)" opacity="0.95"></path><path d="M414.77 311.72C424.21 313.95 432.64 319.84 439.76 328.19 446.79 337.47 452.4 348.07 456.27 358.95 460 369.67 461.96 380.4 461.96 390.68 461.9 400.78 460.02 410.72 456.25 420.11 452.71 429.5 447.83 437.39 442.12 443.38 436.75 449.06 430.52 452.42 423.72 453.14 417.18 453.48 409.91 451.47 402.16 447.62 394.5 444.74 386.21 441.55 377.58 438.82 368.95 438.95 360.8 439.93 353.5 441.21 343.1 444.77 328.49 443.56 325.23 437.04 323.86 431.68 324.33 424.2 326.9 414.88 329.65 405.56 334.19 395.37 340.04 384.81 345.92 374.17 353.07 363.05 361 352.1 368.92 341.3 377.65 331.17 386.74 322.86 395.84 315.87 405.34 311.82 414.77 311.72" stroke-dasharray="9 9" transform="rotate(80.80000000000001, 400, 400)" opacity="0.69"></path><path d="M411.43 322.31C419.23 324.05 426.14 328.63 431.93 335.2 437.65 342.58 442.19 351.23 445.32 360.32 448.35 369.49 449.97 378.81 450 387.73 450.01 396.61 448.53 405.15 445.47 412.89 442.57 420.63 438.49 426.78 433.66 431.15 426.36 436.54 408.92 437.59 399.13 434.23 392.54 432.42 385.51 430.28 378.31 428.23 367.76 428.26 350.05 430.56 343.59 430.3 338.44 428.83 335.21 416.68 337.68 406.06 340.03 398.39 343.87 389.78 348.79 380.77 353.75 371.79 359.77 362.47 366.44 353.47 373.12 344.76 380.47 336.8 388.08 330.46 395.71 325.19 403.63 322.23 411.43 322.31" stroke-dasharray="6 4" transform="rotate(84.84, 400, 400)" opacity="0.60"></path><path d="M407.71 332.9C420.08 336.5 429.43 347.72 434.36 361.58 439.13 376.2 439.52 391.49 434.69 403.71 430.24 415.93 421.96 422.45 412.14 423.1 402.73 424.23 391.34 421.74 379.77 417.64 368.21 418.42 358.57 418.46 352.54 416.16 346.73 414.92 344.86 408.39 348.46 396.31 352.37 384.22 360.97 369.16 371.68 355.26 382.46 342.59 395.33 333.59 407.71 332.9" stroke-dasharray="6 2" transform="rotate(88.88, 400, 400)" opacity="0.46"></path><path d="M403.72 343.49C412.92 345.85 419.81 353.5 423.46 363.26 427.04 373.7 427.42 384.93 423.91 393.96 420.61 402.99 414.3 407.94 406.75 408.95 399.42 410.54 390.63 409.65 381.91 407.05 369.66 406.61 357.03 398.72 359.24 387.13 362.24 378.19 368.72 367.46 376.77 357.97 384.89 349.4 394.53 343.6 403.72 343.49" stroke-dasharray="8 1" transform="rotate(92.92, 400, 400)" opacity="0.29"></path><path d="M399.62 354.09C411.76 357.81 417.74 373.25 413.13 385.13 408.9 397.01 396.36 400.43 384.66 396.45 372.94 397.22 366.21 391.68 370.02 379.9 374.16 368.11 387.47 354.8 399.62 354.09" stroke-dasharray="2 9" transform="rotate(96.96, 400, 400)" opacity="0.48"></path></g></svg>